<?xml version="1.0" encoding="utf-8"?>
<!-- Generator: Adobe Illustrator 19.0.0, SVG Export Plug-In . SVG Version: 6.00 Build 0)  -->
<svg version="1.1" id="图层_1" xmlns="http://www.w3.org/2000/svg" xmlns:xlink="http://www.w3.org/1999/xlink" x="0px" y="0px"
	 viewBox="0 0 64.7 12.6" enable-background="new 0 0 64.7 12.6" xml:space="preserve">
<path id="XMLID_278_" fill="#33485C" d="M5.5,9.2c0.8,0,1.5-0.2,2.1-0.7s0.8-1.1,0.8-1.9c0-0.8-0.3-1.4-0.8-1.9C7.1,4.2,6.4,4,5.5,4
	C4.6,4,3.9,4.2,3.4,4.7S2.6,5.7,2.6,6.5c0,0.8,0.3,1.5,0.8,1.9S4.6,9.2,5.5,9.2z M3.7,5c0.4-0.4,1-0.5,1.8-0.5
	c0.8,0,1.4,0.2,1.8,0.5S8,5.9,8,6.6c0,0.7-0.2,1.2-0.7,1.5c-0.4,0.4-1,0.6-1.7,0.6c-0.8,0-1.4-0.2-1.8-0.6C3.3,7.7,3.1,7.2,3.1,6.6
	C3.1,5.9,3.3,5.4,3.7,5z"/>
<path id="XMLID_287_" fill="#33485C" d="M4,2.1L4,2.1l-1.2,0v0.5h5.5V2.1H5.7C4.8,2.1,4.2,2,3.8,1.7C3.3,1.4,3.1,1,3.1,0.6
	c0-0.2,0.1-0.4,0.2-0.6H2.7C2.7,0.2,2.6,0.3,2.6,0.5c0,0.4,0.1,0.7,0.4,1C3.2,1.8,3.5,2,4,2.1z"/>
<path id="XMLID_295_" fill="#33485C" d="M35.5,4c-1.1,0-1.9,0.3-2.6,1c-0.7,0.7-1,1.7-1,2.9c0,1.1,0.3,2,0.9,2.8s1.5,1.1,2.6,1.1
	c1.1,0,1.9-0.4,2.6-1.1c0.6-0.7,0.9-1.6,0.9-2.8c0-1.2-0.3-2.2-0.9-2.9C37.3,4.4,36.5,4,35.5,4z M37.4,10.3
	c-0.5,0.6-1.2,0.9-2.1,0.9c-0.9,0-1.6-0.3-2.1-0.9c-0.5-0.6-0.8-1.4-0.8-2.3c0-1,0.3-1.9,0.8-2.4c0.5-0.6,1.2-0.9,2.1-0.9
	s1.5,0.3,2,0.8c0.5,0.6,0.7,1.4,0.7,2.4C38.2,8.9,37.9,9.7,37.4,10.3z"/>
<path id="XMLID_296_" fill="#33485C" d="M44.4,4.2l-1.7,2.7l-0.4,0.6h0c0-0.1-0.2-0.3-0.4-0.6l-1.6-2.6h-0.8L41.9,8l-2.5,3.6h0.8
	l1.6-2.5C41.9,9,42,8.9,42,8.9l0.3-0.4h0l1.9,3.1h0.8L42.7,8l2.5-3.8H44.4z"/>
<rect id="XMLID_297_" x="46.6" y="4.2" fill="#33485C" width="0.7" height="7.4"/>
<path id="XMLID_298_" fill="#33485C" d="M46.9,1.2c-0.1,0-0.3,0-0.4,0.1c-0.1,0.1-0.2,0.2-0.2,0.4c0,0.2,0.1,0.3,0.2,0.4
	c0.1,0.1,0.2,0.2,0.4,0.2c0.2,0,0.3-0.1,0.4-0.2c0.1-0.1,0.2-0.2,0.2-0.4c0-0.2-0.1-0.3-0.2-0.4C47.2,1.3,47.1,1.2,46.9,1.2z"/>
<path id="XMLID_299_" fill="#33485C" d="M50.1,5.1c-0.7,0.7-1,1.7-1,2.9c0,1.1,0.3,2,0.9,2.7c0.6,0.7,1.4,1,2.4,1
	c0.8,0,1.4-0.2,2-0.5v-0.7c-0.5,0.4-1.2,0.6-1.9,0.6c-0.8,0-1.5-0.3-2-0.9S49.8,8.9,49.8,8c0-1,0.3-1.8,0.8-2.4
	c0.5-0.6,1.2-0.9,2.1-0.9c0.6,0,1.2,0.2,1.7,0.5V4.4C53.9,4.1,53.4,4,52.8,4C51.7,4,50.8,4.4,50.1,5.1z"/>
<path id="XMLID_300_" fill="#33485C" d="M59.4,4c-1.1,0-2,0.5-2.5,1.5h0V0.6h-0.7v10.9h0.7V7.5c0-0.9,0.2-1.6,0.7-2.1
	c0.5-0.5,1-0.7,1.7-0.7c0.7,0,1.2,0.2,1.5,0.6c0.3,0.4,0.5,1,0.5,1.9v4.4h0.7V7c0-1-0.2-1.7-0.6-2.2S60.2,4,59.4,4z"/>
<rect id="XMLID_301_" x="64.1" y="0.6" fill="#33485C" width="0.7" height="10.9"/>
<path id="XMLID_25_" fill="#33485C" d="M26.4,1.4v0.5l3.2,0l0,9.1h0v0H5v0H3.2V9.6H2.7v1.5H1.8c-0.9,0-1.4-0.3-1.4-1
	c0-0.3,0.1-0.5,0.2-0.6H0.1C0,9.6,0,9.8,0,10c0,0.4,0.2,0.8,0.5,1.1s0.7,0.4,1.3,0.4h1v1h0.5v-1h5.1v0l21.2,0h0.7V1.9h3V1.4
	L26.4,1.4z"/>
</svg>
